<svg xmlns="http://www.w3.org/2000/svg" xmlns:xlink="http://www.w3.org/1999/xlink" width="36" height="36" viewBox="0 0 36 36">
  <defs>
    <style>
      .cls-1 {
        fill: #f5f5f8;
      }

      .cls-2 {
        fill: #43a1ff;
      }

      .cls-3 {
        clip-path: url(#clip-path);
      }

      .cls-4 {
        fill: #f5cdd3;
      }

      .cls-5 {
        fill: #f48c9d;
      }

      .cls-10, .cls-13, .cls-6, .cls-7 {
        fill: none;
      }

      .cls-13, .cls-6 {
        stroke: #be7c3a;
      }

      .cls-10, .cls-13, .cls-6 {
        stroke-linecap: round;
        stroke-linejoin: round;
        stroke-miterlimit: 10;
      }

      .cls-6 {
        stroke-width: 0.2px;
      }

      .cls-8 {
        fill: #fff;
      }

      .cls-9 {
        fill: #00004d;
      }

      .cls-10 {
        stroke: #00004d;
      }

      .cls-10, .cls-13 {
        stroke-width: 0.5px;
      }

      .cls-11 {
        fill: #242424;
      }

      .cls-12 {
        fill: #ffa74e;
      }
    </style>
    <clipPath id="clip-path">
      <rect id="background-square" class="cls-1" width="36" height="36" rx="18"/>
    </clipPath>
  </defs>
  <g id="Group_3802" data-name="Group 3802" transform="translate(-117 -260.4)">
    <rect id="background-square-2" data-name="background-square" class="cls-2" width="36" height="36" rx="18" transform="translate(117 260.4)"/>
    <g id="avatar-frame" class="cls-3" transform="translate(117 260.4)">
      <g id="body" transform="translate(2 7)">
        <g id="body_dark-brown" data-name="body/dark-brown" transform="translate(0 0)">
          <path id="Fill_1" data-name="Fill 1" class="cls-4" d="M29.1,24.824a8,8,0,0,0-4.423-3.154L20.5,20.5v-3a7.488,7.488,0,0,0,2.994-5.77A2,2,0,1,0,23.5,8.068V7.5A7.5,7.5,0,0,0,16,0h0A7.5,7.5,0,0,0,8.5,7.5v.568a2,2,0,1,0,.006,3.662A7.488,7.488,0,0,0,11.5,17.5v3L7.326,21.669A8,8,0,0,0,2.9,24.824L0,29.024V32H32V29.024Z" transform="translate(0 0)"/>
          <path id="Fill_4" data-name="Fill 4" class="cls-5" d="M2.628,1.5A7.482,7.482,0,0,1,0,1.025,7.456,7.456,0,0,0,4.028,2.2a7.47,7.47,0,0,0,3.1-.671V0A7.467,7.467,0,0,1,2.628,1.5Z" transform="translate(13.372 17.5)"/>
          <path id="Stroke_6" data-name="Stroke 6" class="cls-6" d="M1.489,1.392A1.1,1.1,0,0,0,0,.086" transform="translate(7.272 8.8)"/>
          <path id="Stroke_8" data-name="Stroke 8" class="cls-6" d="M.039,1.392A1.1,1.1,0,0,1,1.528.086" transform="translate(23.2 8.8)"/>
        </g>
      </g>
      <g id="mouth" transform="translate(14 20.451)">
        <rect id="mouth_default_background" data-name="mouth/default background" class="cls-7" width="8" height="6"/>
        <path id="default" class="cls-8" d="M4,0A2,2,0,0,1,0,0Z" transform="translate(2 0.95)"/>
      </g>
      <g id="eyes" transform="translate(13 15.2)">
        <rect id="eyes_default_background" data-name="eyes/default background" class="cls-7" width="10" height="4"/>
        <path id="eye-right" class="cls-9" d="M1.6.8A.8.8,0,1,1,.8,0a.8.8,0,0,1,.8.8" transform="translate(7.5 1.2)"/>
        <path id="eye-left" class="cls-9" d="M1.6.8A.8.8,0,1,1,.8,0a.8.8,0,0,1,.8.8" transform="translate(0.9 1.2)"/>
      </g>
      <g id="nose" transform="translate(16.3 15.2)">
        <rect id="nose_default_background" data-name="nose/default background" class="cls-7" width="4" height="6"/>
        <path id="nose-2" data-name="nose" class="cls-10" d="M.4,0l1,3.4L0,3.6" transform="translate(1.3 1.2)"/>
      </g>
      <g id="head" transform="translate(10 4.736)">
        <path id="short-07" class="cls-11" d="M14.917,10.722A1.992,1.992,0,0,1,16,10.189V6.236a4,4,0,0,0-2.211-3.578L8.894.211a2,2,0,0,0-1.789,0L2.211,2.658A4,4,0,0,0,0,6.236v3.953a1.992,1.992,0,0,1,1.084.533v-.043a3.329,3.329,0,0,1,4.9-2.937,4.291,4.291,0,0,0,4.041,0,3.329,3.329,0,0,1,4.9,2.937Z" transform="translate(0 0)"/>
      </g>
      <g id="clothing" transform="translate(2 25.094)">
        <g id="hoodie">
          <path id="Fill_1-2" data-name="Fill 1" class="cls-12" d="M32,10.93l-2.9-4.2a8,8,0,0,0-4.423-3.154l-.221-.062-.894-1.736a2,2,0,0,0-1.033-.94L20.5.025V2.432L16.026,6.906H16l-4.5-4.5V0L9.475.812a2,2,0,0,0-1.033.94L7.533,3.518l-.206.058A8,8,0,0,0,2.9,6.73L0,10.93v2.976H32Z"/>
          <path id="Stroke_4" data-name="Stroke 4" class="cls-13" d="M0,0,8.468,4.9,14.6,1.372" transform="translate(7.533 3.518)"/>
          <path id="Fill_8" data-name="Fill 8" class="cls-9" d="M.3,5.5h0A.3.3,0,0,1,0,5.2V0L.6.34V5.2a.3.3,0,0,1-.3.3" transform="translate(13.4 6.921)"/>
          <path id="Fill_10" data-name="Fill 10" class="cls-9" d="M.3,3.4h0A.3.3,0,0,1,0,3.1V.346L.6,0V3.1a.3.3,0,0,1-.3.3" transform="translate(18 6.921)"/>
        </g>
        <path id="Stroke_6-2" data-name="Stroke 6" class="cls-13" d="M0,0,.8.8" transform="translate(10.7 1.606)"/>
      </g>
      <g id="accessories" transform="translate(10 13.5)">
        <path id="glasses-02" class="cls-9" d="M10.653,0h-3a1,1,0,0,0-.945.675A.7.7,0,0,0,6.153.4H5.5a.7.7,0,0,0-.555.275A1,1,0,0,0,4,0H1A1,1,0,0,0,0,1v.7a2.5,2.5,0,0,0,5,0A.7.7,0,0,1,5.7,1h.253a.7.7,0,0,1,.7.7,2.5,2.5,0,0,0,5,0V1a1,1,0,0,0-1-1" transform="translate(2.15 1.7)"/>
      </g>
    </g>
  </g>
</svg>
